<?xml version="1.0" encoding="utf-8"?>
<!-- Generator: Adobe Illustrator 26.0.1, SVG Export Plug-In . SVG Version: 6.00 Build 0)  -->
<svg version="1.1" id="Layer_1" xmlns="http://www.w3.org/2000/svg" xmlns:xlink="http://www.w3.org/1999/xlink" x="0px" y="0px"
	 viewBox="0 0 200 200" style="enable-background:new 0 0 200 200;" xml:space="preserve">
<style type="text/css">
	.st0{fill:#20385E;}
	.st1{fill:#DC473E;}
	.st2{fill:#FFFFFF;}
</style>
<path class="st0" d="M62.5,129.9c3.7,1.5,9.4,7.4,13.6,10c-3.6,4-8.2,10.4-13.9,11.1c-0.7-0.3-1.5-0.7-2.2-0.8
	c-2.7-0.3-15.1,12.9-17.4,15.3c-1.6,1.7-4.1,4.9-6.4,5.4c-1.1-0.7-1.1-0.8-1.5-2c0.1-0.5,0.1-0.9,0.3-1.4
	c0.9-2.2,17.7-17.3,20.8-21.6c0.1-0.2,0.2-0.3,0.3-0.5c-0.1-2.5-0.5-4.9-1-7.4C57.5,135.2,60,132.6,62.5,129.9z"/>
<path class="st1" d="M97.8,47.8c1.9-2.3,3.9-4.6,6.1-6.6c7.8-6.8,18.6-10.1,28.9-9.3c12.3,0.9,23.5,6.9,31.4,16.3
	c8.3,9.9,12.1,22.7,11,35.6c-0.7,7.6-3,15.2-6.9,21.8c-4,6.6-9.7,12.4-15,18c-17.4,18.5-36.3,35-55.8,51.2l-6.8-5.7
	c-7.3-5.8-14.5-12.1-21.4-18.4c10.1-10,21.5-17.6,32.7-26.2c-8.6-8.4-16.4-17.6-25.5-25.4c-7.1,12.3-13.4,24.7-23.1,35.2
	c-7.5-7.5-20.9-22.8-25.2-32.2c-1.8-4-2.8-8.3-3.3-12.7c-1.6-14.3,2.2-30.8,11.4-42.1c7.3-9.1,17.3-14.2,28.7-15.4
	c2.3-0.1,4.5,0,6.8,0.2C82.9,33.4,91.1,39.3,97.8,47.8z"/>
<path class="st2" d="M133.6,40.6c5.6,0.4,11.3,2.8,15.9,5.9c9,6.1,15.1,16,17,26.6c1.2,6.6,0.7,15.3-3.2,21c-1,0-1.6,0.1-2.5-0.3
	c-0.6-0.3-0.5-0.2-0.8-0.9c-1.1-2,1.1-7.3,1.4-9.7c0.7-4.8-0.3-11.2-1.9-15.8c-2.9-8.4-9.7-16-18.1-19.2c-2.7-1-6.1-1.5-8.6-2.8
	c-0.9-0.5-0.9-0.7-1.2-1.6C132.1,42.3,132.8,41.6,133.6,40.6z"/>
<path class="st2" d="M113.1,50.4c3.5,1.3,29.7,28.2,31.6,31.9c-2.4,4.3-34.6,36.8-38.5,39.1c-6.1-5.4-11.7-11.3-17.5-17
	c-4.2-4.2-8.8-8.2-12.8-12.6c-0.5-0.6-1.9-2-1.8-2.8C75,85,107.6,53.7,113.1,50.4z"/>
<path class="st1" d="M110.6,87.5c3.1,2.1,9.1,8.4,11.2,11.6c-0.5,1.2-1.5,1.9-2.4,2.7c-4.1-3.4-7.8-7.9-11.6-11.6L110.6,87.5z"/>
<path class="st1" d="M97.7,100.4c4.1,3.8,8,7.8,12,11.7c-0.8,1-1.8,1.8-2.7,2.7c-2.6-1.2-9.5-9-12-11.5L97.7,100.4z"/>
<path class="st1" d="M103.8,94.1c3.7,1.9,8.8,8.2,12.2,11.1l-2.8,2.9c-4.2-2.8-8.3-7.7-12-11.3l0-0.6L103.8,94.1z"/>
<path class="st1" d="M116.9,80.8c4.3,2.6,8.5,8.1,12.1,11.7l-3,2.7c-2.1-0.9-9.2-9.3-11.3-11.5C114.8,82.5,116,81.7,116.9,80.8z"/>
<path class="st1" d="M123.3,74.1c2.7,1.3,9.8,8.8,12.6,11.3l-3,3.1l-0.6,0.3c-3.9-3.4-7.8-7.5-11.2-11.5
	C121.5,75.9,122.5,75.1,123.3,74.1z"/>
</svg>
