<?xml version="1.0" encoding="utf-8"?>
<!-- Generator: Adobe Illustrator 26.0.1, SVG Export Plug-In . SVG Version: 6.00 Build 0)  -->
<svg version="1.1" id="Layer_1" xmlns="http://www.w3.org/2000/svg" xmlns:xlink="http://www.w3.org/1999/xlink" x="0px" y="0px"
	 viewBox="0 0 200 200" style="enable-background:new 0 0 200 200;" xml:space="preserve">
<style type="text/css">
	.st0{fill:#20385E;}
	.st1{fill:#FFFFFF;}
	.st2{fill:#2589C7;}
</style>
<path class="st0" d="M152.9,122c3.1-0.1,5.9,0.1,8.8,1.4c4.1,1.8,7.3,5.4,8.8,9.6c1.3,3.9,1,8-0.8,11.7c-2.5,5-6.8,7.7-12,9.3
	c-3.8,0.5-7.5-0.1-10.9-2.1c-3.9-2.3-6.7-6.1-7.6-10.5c-0.9-4.4,0-9,2.6-12.7C144.5,124.7,148.3,122.9,152.9,122z"/>
<path class="st1" d="M153.5,131.6c0.9,0,1.8,0.1,2.7,0.3c2,0.5,3.6,2.1,4.5,3.8c0.8,1.6,0.9,3.4,0.3,5.1c-0.8,2.1-2.2,3.1-4.2,3.9
	c-1.1,0-2.3,0-3.4-0.3c-1.7-0.5-3.3-2-4.1-3.5c-0.8-1.6-0.9-3.4-0.3-5C149.9,133.6,151.4,132.6,153.5,131.6z"/>
<path class="st0" d="M55.4,121.1c3.8,0.3,7,1,10.2,3.2c3.6,2.5,6.2,6.5,6.9,10.9c0.7,4.1-0.5,8.2-2.9,11.6
	c-3.2,4.3-7.4,6.1-12.5,6.9c-3.6,0-7-0.8-10-2.9c-3.7-2.5-6.3-6.6-7-11.1c-0.7-4.4,0.8-9,3.5-12.5C46.7,123.2,50.5,121.8,55.4,121.1
	z"/>
<path class="st1" d="M54.7,131.1c1,0,2,0,3,0.2c1.7,0.4,3.3,1.7,4.2,3.2c0.9,1.6,1.1,3.5,0.5,5.2c-0.8,2.4-2.3,3.4-4.5,4.5
	c-1.2,0-2.5,0-3.7-0.3c-1.5-0.4-3.1-1.6-3.9-3c-0.8-1.4-1.1-3-0.7-4.5C50.4,133.7,52.3,132.4,54.7,131.1z"/>
<path class="st2" d="M27.1,54.1C44,53.6,61,54,77.9,54c10.5,0,37.1-1.3,45.7,1.3c11.3,3.5,16.1,12.9,21.7,22.3
	c2.9,4.8,5.8,9.6,8.4,14.6c5.8-0.1,11.8-0.5,17.1,2.5c9.6,5.4,5.5,14.2,8,22.6c1.2,4.2,4,3.5,7,5.5c1.2,0.8,1.9,2.2,2.1,3.6
	c0.4,2.4,0.3,5.8-1.4,7.8c-2.3,2.8-6.8,2.7-10.1,2.9c-0.3-2.9-0.8-5.7-2.1-8.4c-2.8-5.8-7.6-9.4-13.6-11.4
	c-6.1-0.8-11.6-0.9-17.1,2.5c-6.4,4-8.6,9.7-10.3,16.6l-55.3,0c-0.5-3.6-1.5-7-3.5-10.1c-3.2-5.1-8.3-8.5-14.1-9.7
	c-5.4-1.2-10.9-0.4-15.6,2.7c-6.2,4.1-8.9,10.2-10.3,17.2c-2.7,0.1-6.4,0.5-9-0.2c-1.8-0.5-3.3-1.5-4.2-3.1c-1.3-2.2-1.2-5-0.5-7.4
	c0.6-2.2,2-3.5,3.8-4.6l-0.1-43.2c0-6.8-0.8-14.5,0.1-21.2C24.8,55.7,26.2,54.9,27.1,54.1z"/>
<path class="st1" d="M105.7,61.4c5.4-0.2,10.5-0.5,15.7,1.5c9.8,3.7,19.1,19.2,23.2,28.6c-13,0.2-26.1,0-39.2,0
	C105.4,81.5,105.2,71.4,105.7,61.4z"/>
<path class="st1" d="M58.6,61.5c5.1-0.4,10.2,0,14.9,2.4c6,3.1,10.2,8.9,12.1,15.3c1.8,6.1,1.2,13-2,18.5
	c-3.7,6.4-9.7,9.5-16.6,11.4c-6.1,0.7-11.9,0.6-17.4-2.6c-5.4-3.2-9.4-8.6-10.8-14.7C37.1,85,38.2,78,42,72.2
	C46,66.1,51.5,62.9,58.6,61.5z"/>
<path class="st0" d="M60,69.7c1.7-0.1,3.6-0.3,5,0.9c2.3,2,1.4,7.7,1.3,10.5c3.7,0.1,8.1-1.1,11.1,1.4c0.6,1.1,0.9,1.8,0.8,3
	c-0.1,0.9-0.5,1.9-1.2,2.5c-2.5,2-7.7,1-10.7,0.8c0.1,4.1,1,9.4-1.7,12.8c-0.6,0.1-1.2,0.1-1.7,0.2c-1.4,0.1-2.9-0.2-3.9-1.3
	c-2.2-2.4-1.4-8.3-1.3-11.4c-2.6,0.1-7.6,0.8-9.7-0.8c-0.8-0.6-1.2-1.5-1.3-2.5c-0.1-1.3,0.1-2.8,1-3.8c2-1.9,7.1-1.1,9.7-1
	c0-2.4-0.3-4.8,0-7.2C57.7,71.9,58.5,71,60,69.7z"/>
</svg>
