<?xml version="1.0" encoding="utf-8"?>
<!-- Generator: Adobe Illustrator 26.0.1, SVG Export Plug-In . SVG Version: 6.00 Build 0)  -->
<svg version="1.1" id="Layer_1" xmlns="http://www.w3.org/2000/svg" xmlns:xlink="http://www.w3.org/1999/xlink" x="0px" y="0px"
	 viewBox="0 0 200 200" style="enable-background:new 0 0 200 200;" xml:space="preserve">
<style type="text/css">
	.st0{fill:#20385E;}
	.st1{fill:#DC473E;}
</style>
<path class="st0" d="M28.1,93.6c4.4,3.3,8.9,6.2,13.9,8.7c-0.9,2.4-1.5,4.9-3.1,6.8c-0.8,0.4-1.3,0.5-2.2,0.4
	c-2.2-1.9-5.6-2.9-8.2-4c-1.7-0.7-3.4-1.4-5-2.2C24.9,100.1,26.3,96.7,28.1,93.6z"/>
<path class="st1" d="M28.4,105.6c2.6,1.1,6.1,2.1,8.2,4c-0.2,0.4-0.4,0.7-0.6,1.1c-4.4,9.8-6.3,23.5-2.1,33.7
	c2.8,6.9,7.7,12.3,14.7,15.1c7.6,3.1,16.1,2.5,23.5-0.9c9.3-4.2,15.2-11.8,18.7-21.2c2.4,3,4.9,5.9,7.6,8.7
	c-4.9,10-14.3,18.4-24.5,22.6c-9.5,3.9-19.9,4-29.3,0.1c-8.9-3.7-15.7-10.7-19.3-19.7C19.5,134.7,22.5,119.4,28.4,105.6z"/>
<path class="st0" d="M88.8,22.6c1-0.1,2-0.1,3,0c6.6,0.4,13.3,3.3,17.6,8.3c4.7,5.4,7.1,12.2,6.6,19.3
	c-1.3,15.9-14.3,28.2-25.6,37.9c-5.3,4.3-10.6,8.1-16.5,11.6c0.5-21.8,0.7-45.6-0.2-67.2c0.2-0.5,0.4-1,0.7-1.5
	C77.9,25.9,82.9,23.7,88.8,22.6z"/>
<path class="st0" d="M53,22.6c1.9-0.1,3.9,0.2,5.7,0.7c5.3,1.3,9.2,4.2,12,8.9c-1,6.5-0.6,13.5-0.6,20.1c0,14.4,0.5,28.9,0.2,43.4
	c0,1.6,0,2.3,1.2,3.5c0.2,0.2,0.4,0.4,0.6,0.6c-3.7,0.3-19.3-12.1-23-15l-1.7,2.9c-1.4,2.9-2.6,5.9-3.8,8.9c-4.6-2.6-6.4-5-12-4.3
	l-0.9,0.1c0-0.2-0.1-0.4-0.1-0.7c0.1-2.8,6.6-15.8,8.5-17.7c-4.7-6.4-9.3-13.6-10.5-21.5c-1-6.6,0.6-13.9,4.6-19.3
	C38.3,26.7,45.3,23.6,53,22.6z"/>
<path class="st1" d="M108.3,90.6c0.4,0,0.9,0,1.3,0c10.2,0.2,15.7,4.2,22.5,11.2c2.4-2.7,4.7-5.2,7.8-7.2c5.7-3.6,13.3-4.8,19.9-3.1
	c6.1,1.6,11.2,5.8,14.3,11.2c3.7,6.5,3.8,14.2,1.7,21.2c-5.7,18.9-25.3,35.1-42.1,44.2c0.2-10.9,0.2-21.8,0.3-32.7
	c0-6.6,1.2-28-0.9-32.9l-1.1-0.3L131,103c-0.6,1.5-0.8,2.7-1,4.3c-0.5,6.7,0.1,13.8,0.1,20.5c0,13.3-0.4,26.8,0.4,40.1
	c-4.4-2.5-8.6-5.2-12.6-8.2c-14-10.2-28.4-24.4-31-42.4c-0.9-6,0.2-12.8,4.1-17.7C95.1,94.2,101.6,91.5,108.3,90.6z"/>
</svg>
