<?xml version="1.0" encoding="utf-8"?>
<!-- Generator: Adobe Illustrator 26.0.1, SVG Export Plug-In . SVG Version: 6.00 Build 0)  -->
<svg version="1.1" id="Layer_1" xmlns="http://www.w3.org/2000/svg" xmlns:xlink="http://www.w3.org/1999/xlink" x="0px" y="0px"
	 viewBox="0 0 200 200" style="enable-background:new 0 0 200 200;" xml:space="preserve">
<style type="text/css">
	.st0{fill:#20385E;}
	.st1{fill:#2589C7;}
	.st2{fill:#FFFFFF;}
</style>
<path class="st0" d="M97.2,24.3c8.1-0.8,16.3,1.5,23,6.2c8.7,6.1,12.7,14.7,14.5,24.9c-5.1,0.1-10.2,0.1-15.3,0.1
	c-0.7-2.4-1.6-4.9-2.8-7.1c-3-5.5-7.3-8.1-13.1-9.9c-5-0.5-9.9,0.2-14.2,3c-5.1,3.3-7.3,8.5-8.4,14.2l-15,0.1
	c0.9-6.5,2.4-12.3,6.3-17.6C78.3,29.8,87.3,25.8,97.2,24.3z"/>
<path class="st1" d="M65.6,60.9c13.7-0.6,27.5-0.1,41.2-0.2c9.2,0,20.3-0.9,29.3,0.5c4.5,0.7,8.8,2.1,12.4,4.9
	c4.8,3.6,7.9,8.8,8.6,14.7c1.4,10.2,0.4,22.9,0.4,33.3l0,21.7c0,5.7,0.3,11.5-0.7,17.2c-0.7,3.7-2.2,7-4.5,10
	c-4.3,5.5-10.2,8.4-17.1,9.3c-14.6,0.7-29.4,0.3-44,0.3c-9.1,0-20,1-28.9-0.7c-3.8-0.7-7-2.2-10.1-4.6c-5.3-4.2-8.8-9.9-9.6-16.7
	c-1.2-10.4-0.4-23-0.4-33.7c0-9.7-0.9-25.9,0.6-34.9c0.8-4.3,2.3-7.9,5-11.3C52.3,65.2,58.8,61.7,65.6,60.9z"/>
<path class="st2" d="M89.8,80.7c6.8-0.1,14.6-0.8,21.3,0.5c0.3,7.9,0.1,15.8,0.1,23.6c5,0,20.3-1,24,1.1c1.3,2.2,0.6,11.7,0.7,15
	c0,1.7,0.4,4.5-0.9,5.8c-5.5,1.8-17.7,0.8-23.9,0.8c0.2,7.5,1.2,16.1,0.1,23.5c-7.3,0.3-14.8,0.1-22.1,0.1
	c-0.4-7.9-0.1-15.8-0.1-23.7c-7.4,0-16.9,1-24-0.5c-0.4-0.6-0.4-0.6-0.5-1.1c-0.3-1.8-0.2-19,0.4-19.6c2.1-2.1,20-1.2,23.9-1.2
	C88.8,100.9,88,83.4,89.8,80.7z"/>
</svg>
